<?xml version="1.0" encoding="UTF-8"?>
<svg id="uuid-3896b6c5-4ba8-42ca-985e-e16aa3054430" data-name="Bonded" xmlns="http://www.w3.org/2000/svg" viewBox="0 0 310.87 310.87">
  <defs>
    <style>
      .uuid-e142820c-614a-4061-bb04-4500143264eb {
        fill: #fff;
        stroke-width: 8px;
      }

      .uuid-e142820c-614a-4061-bb04-4500143264eb, .uuid-ba80abf8-c8d2-45f0-b2a5-c8496606746c {
        stroke: #fff;
      }

      .uuid-ba80abf8-c8d2-45f0-b2a5-c8496606746c {
        fill: none;
        stroke-width: 10px;
      }
    </style>
  </defs>
  <circle cx="155.43" cy="155.43" r="155.43"/>
  <path class="uuid-e142820c-614a-4061-bb04-4500143264eb" d="M148.75,236.1v-19.85c-11.4-.2-23.19-3.73-30.07-8.65l4.72-13.17c7.07,4.72,17.29,8.45,28.3,8.45,13.95,0,23.38-8.06,23.38-19.26s-7.66-17.49-22.21-23.39c-20.04-7.86-32.43-16.9-32.43-34s11.59-28.69,29.67-31.64v-19.85h12.18v19.06c11.79.39,19.85,3.54,25.55,6.88l-4.91,12.97c-4.13-2.36-12.19-6.68-24.76-6.68-15.13,0-20.83,9.04-20.83,16.9,0,10.22,7.27,15.33,24.37,22.4,20.24,8.25,30.46,18.47,30.46,35.96,0,15.52-10.81,30.07-31.05,33.41v20.44h-12.38Z"/>
  <circle class="uuid-ba80abf8-c8d2-45f0-b2a5-c8496606746c" cx="155.43" cy="155.43" r="118.29"/>
</svg>