<?xml version="1.0" encoding="UTF-8"?>
<svg id="uuid-f42ec6a1-fade-48de-ad9c-09bab97ff5ba" data-name="Insured" xmlns="http://www.w3.org/2000/svg" viewBox="0 0 310.87 310.87">
  <defs>
    <style>
      .uuid-e05ab465-5fdf-4bb8-ac1d-c285e2a37c46 {
        fill: none;
        stroke: #fff;
        stroke-linecap: round;
        stroke-linejoin: round;
        stroke-width: 16px;
      }

      .uuid-2388b859-5cf5-4313-8913-f26f485848f9 {
        fill: #fff;
      }
    </style>
  </defs>
  <g>
    <path d="M155.44,285.48c-1.53,0-3.02-.3-4.42-.91-43.35-18.57-75.02-42.5-94.15-71.15-14.43-21.6-21.74-45.87-21.74-72.13v-65.41c0-5.67,4.13-10.39,9.81-11.22,47.52-6.94,86.12-26.11,104.9-36.93,1.7-.98,3.64-1.5,5.6-1.5s3.9.52,5.6,1.5c18.78,10.81,57.38,29.98,104.89,36.93,5.68.83,9.81,5.55,9.81,11.22v65.41c0,26.26-7.31,50.53-21.74,72.13-19.12,28.65-50.8,52.58-94.15,71.15-1.4.6-2.89.9-4.42.9Z"/>
    <path class="uuid-2388b859-5cf5-4313-8913-f26f485848f9" d="M155.44,38.35c19.6,11.24,59.34,30.87,108.3,38.11v64.83c0,23.85-6.63,45.88-19.71,65.47-17.77,26.61-47.57,49.04-88.59,66.65-41.01-17.62-70.82-40.04-88.59-66.65-13.08-19.6-19.72-41.62-19.72-65.47v-64.83c48.96-7.24,88.71-26.87,108.31-38.11M155.44,14.23c-4,0-8,1.03-11.59,3.1-17.9,10.3-55.01,28.78-100.65,35.45-11.5,1.68-20.07,11.47-20.07,23.1v65.41c0,47.58,22.3,111.11,123.17,154.32,2.92,1.25,6.03,1.87,9.14,1.87s6.23-.62,9.14-1.87c100.86-43.2,123.16-106.74,123.16-154.32v-65.41c0-11.63-8.57-21.42-20.07-23.1-45.63-6.67-82.74-25.15-100.64-35.45-3.59-2.06-7.59-3.1-11.59-3.1h0Z"/>
    <path d="M155.44,14.23v14c1.61,0,3.2.42,4.6,1.23,18.9,10.88,57.76,30.18,105.6,37.17,4.69.69,8.1,4.57,8.1,9.24v65.41c0,25.86-7.2,49.76-21.4,71.02-18.91,28.32-50.29,52.01-93.27,70.42-1.15.49-2.37.74-3.63.74s-2.48-.25-3.63-.74c-42.98-18.41-74.37-42.11-93.28-70.42-14.2-21.27-21.4-45.16-21.4-71.02v-65.41c0-4.67,3.41-8.56,8.1-9.24,47.85-6.99,86.71-26.29,105.61-37.17,1.4-.8,2.99-1.23,4.6-1.23v-14M155.44,14.23c-4,0-8,1.03-11.59,3.1-17.9,10.3-55.01,28.78-100.65,35.45-11.5,1.68-20.07,11.47-20.07,23.1v65.41c0,47.58,22.3,111.11,123.17,154.32,2.92,1.25,6.03,1.87,9.14,1.87s6.23-.62,9.14-1.87c100.86-43.2,123.16-106.74,123.16-154.32v-65.41c0-11.63-8.57-21.42-20.07-23.1-45.63-6.67-82.74-25.15-100.64-35.45-3.59-2.06-7.59-3.1-11.59-3.1h0Z"/>
  </g>
  <polyline class="uuid-e05ab465-5fdf-4bb8-ac1d-c285e2a37c46" points="114.78 151.73 138.05 184.5 196.09 127.21"/>
</svg>