<?xml version="1.0" encoding="UTF-8"?>
<svg id="uuid-214a2bfa-12d3-4d8b-aedc-5bad8f3094c2" data-name="Insured" xmlns="http://www.w3.org/2000/svg" viewBox="0 0 310.87 310.87">
  <defs>
    <style>
      .uuid-2b39db08-f844-4813-9659-bb53f630e9c6 {
        fill: none;
        stroke: #fff;
        stroke-linecap: round;
        stroke-linejoin: round;
        stroke-width: 16px;
      }

      .uuid-535d8d3c-f6d1-41df-aa55-3d0876823024 {
        fill: #fff;
      }
    </style>
  </defs>
  <g>
    <path d="M155.44,283.48c-1.26,0-2.48-.25-3.63-.74-42.98-18.41-74.37-42.11-93.28-70.42-14.2-21.27-21.4-45.16-21.4-71.02v-65.41c0-4.67,3.41-8.56,8.1-9.24,47.85-6.99,86.71-26.29,105.61-37.17,1.4-.8,2.99-1.23,4.6-1.23s3.21.42,4.6,1.23c18.9,10.88,57.75,30.18,105.6,37.17,4.69.69,8.1,4.57,8.1,9.24v65.41c0,25.86-7.2,49.76-21.4,71.02-18.91,28.32-50.29,52.01-93.27,70.42-1.15.49-2.37.74-3.63.74Z"/>
    <path class="uuid-535d8d3c-f6d1-41df-aa55-3d0876823024" d="M155.44,42.95c19.99,11.25,57.86,29.48,104.3,36.94v61.4c0,23.05-6.41,44.33-19.04,63.25-17.1,25.62-45.78,47.32-85.26,64.52-39.48-17.2-68.16-38.9-85.26-64.52-12.64-18.93-19.05-40.21-19.05-63.25v-61.4c46.45-7.46,84.32-25.69,104.31-36.94M155.44,14.23c-4,0-8,1.03-11.59,3.1-17.9,10.3-55.01,28.78-100.65,35.45-11.5,1.68-20.07,11.47-20.07,23.1v65.41c0,47.58,22.3,111.11,123.17,154.32,2.92,1.25,6.03,1.87,9.14,1.87s6.23-.62,9.14-1.87c100.86-43.2,123.16-106.74,123.16-154.32v-65.41c0-11.63-8.57-21.42-20.07-23.1-45.63-6.67-82.74-25.15-100.64-35.45-3.59-2.06-7.59-3.1-11.59-3.1h0Z"/>
    <path d="M155.44,14.23v14c1.61,0,3.2.42,4.6,1.23,18.9,10.88,57.76,30.18,105.6,37.17,4.69.69,8.1,4.57,8.1,9.24v65.41c0,25.86-7.2,49.76-21.4,71.02-18.91,28.32-50.29,52.01-93.27,70.42-1.15.49-2.37.74-3.63.74s-2.48-.25-3.63-.74c-42.98-18.41-74.37-42.11-93.28-70.42-14.2-21.27-21.4-45.16-21.4-71.02v-65.41c0-4.67,3.41-8.56,8.1-9.24,47.85-6.99,86.71-26.29,105.61-37.17,1.4-.8,2.99-1.23,4.6-1.23v-14M155.44,14.23c-4,0-8,1.03-11.59,3.1-17.9,10.3-55.01,28.78-100.65,35.45-11.5,1.68-20.07,11.47-20.07,23.1v65.41c0,47.58,22.3,111.11,123.17,154.32,2.92,1.25,6.03,1.87,9.14,1.87s6.23-.62,9.14-1.87c100.86-43.2,123.16-106.74,123.16-154.32v-65.41c0-11.63-8.57-21.42-20.07-23.1-45.63-6.67-82.74-25.15-100.64-35.45-3.59-2.06-7.59-3.1-11.59-3.1h0Z"/>
  </g>
  <polyline class="uuid-2b39db08-f844-4813-9659-bb53f630e9c6" points="114.78 151.73 138.05 184.5 196.09 127.21"/>
</svg>