<?xml version="1.0" encoding="UTF-8"?>
<svg id="uuid-68094c9c-34df-4a95-aeb1-eac19125b17d" data-name="Licensed" xmlns="http://www.w3.org/2000/svg" viewBox="0 0 310.87 310.87">
  <defs>
    <style>
      .uuid-a7aa86a4-5160-4c54-aa84-966783b1eb15 {
        stroke-linecap: round;
        stroke-linejoin: round;
        stroke-width: 16px;
      }

      .uuid-a7aa86a4-5160-4c54-aa84-966783b1eb15, .uuid-a5271d12-ba32-4185-afd2-6fe3c627d956 {
        fill: none;
        stroke: #fff;
      }

      .uuid-a5271d12-ba32-4185-afd2-6fe3c627d956 {
        stroke-miterlimit: 10;
        stroke-width: 14px;
      }
    </style>
  </defs>
  <path d="M164.29,295.95l26.47,9.49c11.9,4.27,25.15-.56,31.53-11.48l14.18-24.28c3.07-5.25,7.86-9.28,13.57-11.39l26.38-9.75c11.86-4.38,18.91-16.59,16.78-29.06l-4.75-27.71c-1.03-6,.06-12.16,3.08-17.45l13.94-24.42c6.27-10.98,3.82-24.87-5.83-33.04l-21.45-18.18c-4.64-3.93-7.77-9.36-8.86-15.34l-5.02-27.67c-2.26-12.44-13.06-21.5-25.7-21.57l-28.12-.14c-6.08-.03-11.97-2.17-16.65-6.06l-21.63-17.97c-9.72-8.08-23.83-8.08-33.55,0l-21.63,17.97c-4.68,3.89-10.56,6.03-16.65,6.06l-28.12.14c-12.64.06-23.45,9.13-25.7,21.57l-5.02,27.67c-1.09,5.99-4.22,11.41-8.86,15.34l-21.45,18.18c-9.65,8.17-12.09,22.06-5.83,33.04l13.94,24.42c3.02,5.28,4.1,11.45,3.08,17.45l-4.75,27.71c-2.13,12.46,4.92,24.67,16.78,29.06l26.38,9.75c5.71,2.11,10.5,6.13,13.57,11.39l14.18,24.28c6.37,10.92,19.63,15.74,31.53,11.48l26.47-9.49c5.73-2.05,11.99-2.05,17.72,0Z"/>
  <circle class="uuid-a5271d12-ba32-4185-afd2-6fe3c627d956" cx="155.43" cy="155.43" r="101.71"/>
  <polyline class="uuid-a7aa86a4-5160-4c54-aa84-966783b1eb15" points="114.78 151.31 138.05 184.08 196.09 126.78"/>
</svg>